HIERARCHY
ROOT Hips
{
	OFFSET 0.00000 0.00000 0.00000
	CHANNELS 6 Xposition Yposition Zposition Zrotation Yrotation Xrotation 
	JOINT LHipJoint
	{
		OFFSET 0 0 0
		CHANNELS 3 Zrotation Yrotation Xrotation
		JOINT LeftUpLeg
		{
			OFFSET 1.62964 -1.40469 0.78906
			CHANNELS 3 Zrotation Yrotation Xrotation
			JOINT LeftLeg
			{
				OFFSET 2.29640 -6.30932 0.00000
				CHANNELS 3 Zrotation Yrotation Xrotation
				JOINT LeftFoot
				{
					OFFSET 2.29451 -6.30412 0.00000
					CHANNELS 3 Zrotation Yrotation Xrotation
					JOINT LeftToeBase
					{
						OFFSET 0.03611 -0.09921 1.56387
						CHANNELS 3 Zrotation Yrotation Xrotation
						End Site
						{
							OFFSET 0.00000 -0.00000 0.80291
						}
					}
				}
			}
		}
	}
	JOINT RHipJoint
	{
		OFFSET 0 0 0
		CHANNELS 3 Zrotation Yrotation Xrotation
		JOINT RightUpLeg
		{
			OFFSET -1.73712 -1.40469 0.78906
			CHANNELS 3 Zrotation Yrotation Xrotation
			JOINT RightLeg
			{
				OFFSET -2.28137 -6.26801 0.00000
				CHANNELS 3 Zrotation Yrotation Xrotation
				JOINT RightFoot
				{
					OFFSET -2.28681 -6.28298 0.00000
					CHANNELS 3 Zrotation Yrotation Xrotation
					JOINT RightToeBase
					{
						OFFSET -0.15927 -0.43759 1.61103
						CHANNELS 3 Zrotation Yrotation Xrotation
						End Site
						{
							OFFSET -0.00000 -0.00000 0.84630
						}
					}
				}
			}
		}
	}
	JOINT LowerBack
	{
		OFFSET 0 0 0
		CHANNELS 3 Zrotation Yrotation Xrotation
		JOINT Spine
		{
			OFFSET -0.04227 2.04338 -0.00225
			CHANNELS 3 Zrotation Yrotation Xrotation
			JOINT Spine1
			{
				OFFSET -0.02148 2.04482 -0.04273
				CHANNELS 3 Zrotation Yrotation Xrotation
				JOINT Neck
				{
					OFFSET 0 0 0
					CHANNELS 3 Zrotation Yrotation Xrotation
					JOINT Neck1
					{
						OFFSET 0.09180 1.44629 0.19359
						CHANNELS 3 Zrotation Yrotation Xrotation
						JOINT Head
						{
							OFFSET 0.00887 1.40645 0.14750
							CHANNELS 3 Zrotation Yrotation Xrotation
							End Site
							{
								OFFSET -0.00669 1.50671 0.03707
							}
						}
					}
				}
				JOINT LeftShoulder
				{
					OFFSET 0 0 0
					CHANNELS 3 Zrotation Yrotation Xrotation
					JOINT LeftArm
					{
						OFFSET 2.17674 1.86763 -0.06520
						CHANNELS 3 Zrotation Yrotation Xrotation
						JOINT LeftForeArm
						{
							OFFSET 4.65776 -0.00000 0.00000
							CHANNELS 3 Zrotation Yrotation Xrotation
							JOINT LeftHand
							{
								OFFSET 3.55539 -0.00000 0.00000
								CHANNELS 3 Zrotation Yrotation Xrotation
								JOINT LeftFingerBase
								{
									OFFSET 0 0 0
									CHANNELS 3 Zrotation Yrotation Xrotation
									JOINT LeftHandIndex1
									{
										OFFSET 0.70726 -0.00000 0.00000
										CHANNELS 3 Zrotation Yrotation Xrotation
										End Site
										{
											OFFSET 0.57022 -0.00000 0.00000
										}
									}
								}
								JOINT LThumb
								{
									OFFSET 0 0 0
									CHANNELS 3 Zrotation Yrotation Xrotation
									End Site
									{
										OFFSET 0.57892 -0.00000 0.57892
									}
								}
							}
						}
					}
				}
				JOINT RightShoulder
				{
					OFFSET 0 0 0
					CHANNELS 3 Zrotation Yrotation Xrotation
					JOINT RightArm
					{
						OFFSET -2.80694 1.55459 -0.32496
						CHANNELS 3 Zrotation Yrotation Xrotation
						JOINT RightForeArm
						{
							OFFSET -4.71925 -0.00000 -0.00000
							CHANNELS 3 Zrotation Yrotation Xrotation
							JOINT RightHand
							{
								OFFSET -3.56990 -0.00000 0.00000
								CHANNELS 3 Zrotation Yrotation Xrotation
								JOINT RightFingerBase
								{
									OFFSET 0 0 0
									CHANNELS 3 Zrotation Yrotation Xrotation
									JOINT RightHandIndex1
									{
										OFFSET -0.50776 -0.00000 0.00000
										CHANNELS 3 Zrotation Yrotation Xrotation
										End Site
										{
											OFFSET -0.40937 -0.00000 0.00000
										}
									}
								}
								JOINT RThumb
								{
									OFFSET 0 0 0
									CHANNELS 3 Zrotation Yrotation Xrotation
									End Site
									{
										OFFSET -0.41562 -0.00000 0.41562
									}
								}
							}
						}
					}
				}
			}
		}
	}
}
MOTION
Frames: 13
Frame Time: .0083333
-0.9302 18.0397 21.0141 0 0 0 0 0 0 -21 0 0 0 0 0 0 0 0 0 0 0 0 0 0 21 0 0 0 0 0 0 0 0 0 0 0 0 0 0 0 0 0 0 0 0 0 0 -16 0 0 21 0 0 11 0 0 0 -8 0 0 0 0 0 0 0 0 0 0 0 0 0 0 0 0 0 0 0 0 8 0 0 0 0 0 0 0 0 0 0 0 0 0 0 0 0 0
-0.9302 18.0397 21.0141 177.1590 -1.9072 -154.3690 0.0000 0.0000 0.0000 -20.6658 -19.9628 -22.8974 0.5865 4.9033 13.6329 0.1736 -3.8474 -7.4770 3.0448 -10.7673 -31.4990 0.0000 0.0000 0.0000 18.0390 14.3888 -22.6126 -0.2910 -3.4688 9.5869 -1.0454 2.1698 -18.7205 -1.2711 7.1458 -20.1481 -4.4928 -3.6728 -23.9119 -0.3844 -3.8050 0.2833 0.7516 -2.1332 14.0593 -4.3458 1.8042 -2.1372 1.9649 3.0993 13.2507 1.6068 1.6498 4.6890 -0.0000 -0.0000 0.0000 -83.2855 0.7200 17.5177 15.5681 -24.9316 -3.4619 -0.0000 0.0000 -7.4650 21.3961 -17.2467 -6.6262 -7.1250 0.0000 -0.0000 -4.3005 11.5801 3.3594 -0.0000 -0.0000 0.0000 91.7407 -9.2559 12.3457 -20.2596 30.9539 -5.6643 0.0000 -0.0000 -3.5784 -13.8432 -58.4328 11.8576 7.1250 -0.0000 -0.0000 89.3719 -76.9077 -75.9078
-0.9293 18.0362 21.0172 177.1740 -1.7878 -154.1860 0.0000 0.0000 0.0000 -20.5554 -19.9562 -23.1684 0.5854 4.8989 13.6206 0.1759 -3.7205 -7.5073 3.1081 -10.8681 -31.8362 0.0000 0.0000 0.0000 17.9007 14.8208 -22.7359 -0.2884 -3.4535 9.5440 -1.0380 1.8941 -18.7160 -1.4192 7.5340 -21.3074 -4.7769 -3.6170 -24.1670 -0.3011 -3.6538 0.2540 1.0505 -2.0911 14.1851 -4.2193 1.6883 -1.8805 1.8950 2.9313 13.1190 1.5444 1.5719 4.5969 -0.0000 0.0000 0.0000 -83.3634 0.3006 17.5267 15.2117 -24.4402 -3.3130 -0.0000 0.0000 -7.2030 20.9322 -17.4373 -6.5389 -7.1250 0.0000 -0.0000 -4.6190 11.4390 3.6233 -0.0000 0.0000 0.0000 91.7199 -9.6535 14.7973 -21.3902 32.2810 -6.2570 0.0000 -0.0000 -9.7917 -34.6269 -65.2783 32.0983 7.1250 -0.0000 -0.0000 132.9067 78.0621 142.3490
-0.9326 18.0312 21.0175 177.2440 -1.8045 -154.1040 0.0000 0.0000 0.0000 -20.4674 -19.8991 -23.2742 0.5819 4.8844 13.5790 0.1750 -3.7283 -7.4897 3.2273 -11.0543 -32.4631 0.0000 0.0000 0.0000 17.9459 14.8901 -22.7992 -0.2865 -3.4424 9.5129 -1.0368 1.8759 -18.7085 -1.4298 7.5609 -21.3880 -4.9091 -3.5676 -24.3652 -0.2222 -3.5498 0.2614 1.2441 -2.0582 14.3135 -4.0287 1.5636 -1.6399 1.7827 2.7558 13.0112 1.4574 1.4915 4.5182 0.0000 -0.0000 0.0000 -83.3899 -0.0307 17.5847 14.9647 -24.0968 -3.2115 -0.0000 0.0000 -7.0748 20.1160 -17.5877 -6.3154 -7.1250 0.0000 -0.0000 -5.1665 11.3849 4.0620 0.0000 -0.0000 0.0000 91.7096 -9.7696 14.8001 -21.5315 32.4435 -6.3327 0.0000 -0.0000 -10.1106 -29.1096 -63.8295 26.5527 7.1250 -0.0000 -0.0000 119.3307 78.9398 129.5584
-0.9385 18.0255 21.0168 177.2910 -1.7991 -154.0190 0.0000 0.0000 0.0000 -20.4307 -19.8770 -23.3739 0.5825 4.8868 13.5861 0.1773 -3.6955 -7.5327 3.5561 -11.5451 -34.1411 0.0000 0.0000 0.0000 17.9472 14.9824 -22.8556 -0.2857 -3.4375 9.4992 -1.0392 1.8651 -18.7333 -1.3638 7.3916 -20.8807 -5.0242 -3.5104 -24.5749 -0.1660 -3.4387 0.2553 1.4054 -2.0207 14.4283 -3.9288 1.5087 -1.6380 1.7962 2.6979 13.2275 1.4469 1.4747 4.6001 -0.0000 -0.0000 0.0000 -83.4194 -0.2332 17.6277 14.7917 -23.8551 -3.1412 -0.0000 0.0000 -6.9870 19.1976 -17.8636 -6.0965 -7.1250 0.0000 -0.0000 -5.7866 11.2110 4.5751 -0.0000 -0.0000 0.0000 91.7108 -9.8331 14.7102 -21.6035 32.5260 -6.3713 0.0000 -0.0000 -10.2146 -25.6624 -62.2472 23.0347 7.1250 -0.0000 -0.0000 107.2889 79.3802 117.8690
-0.9430 18.0199 21.0177 177.2590 -1.6965 -153.9480 0.0000 0.0000 0.0000 -20.4576 -19.9563 -23.4187 0.5814 4.8825 13.5736 0.1847 -3.5990 -7.6725 3.7242 -11.7840 -34.9722 0.0000 0.0000 0.0000 17.7789 15.3592 -22.7974 -0.2834 -3.4237 9.4608 -1.0370 1.6134 -18.7754 -1.2439 7.0717 -19.9280 -5.2634 -3.4600 -24.7317 -0.1300 -3.3044 0.2252 1.6267 -1.9819 14.4880 -3.7102 1.5078 -1.4485 1.6063 2.7097 13.2067 1.3396 1.4864 4.5580 -0.0000 0.0000 0.0000 -83.4274 -0.3669 17.7697 14.6570 -23.6661 -3.0869 -0.0000 0.0000 -7.0813 18.2690 -18.0431 -5.8381 -7.1250 0.0000 -0.0000 -6.4059 11.1372 5.0806 -0.0000 0.0000 0.0000 91.6836 -9.8071 14.0899 -21.5493 32.4639 -6.3422 0.0000 -0.0000 -9.6565 -19.9225 -59.4984 17.3427 7.1250 -0.0000 -0.0000 86.2077 78.7201 97.6118
-0.9474 18.0148 21.0164 177.2640 -1.5754 -153.8980 0.0000 0.0000 0.0000 -20.4593 -19.9827 -23.3753 0.5687 4.8296 13.4232 0.1873 -3.5374 -7.7190 3.6704 -11.7083 -34.7078 0.0000 0.0000 0.0000 17.7088 15.5134 -22.8095 -0.2831 -3.4218 9.4555 -1.0272 1.5965 -18.6886 -1.1264 6.7413 -18.9512 -5.6481 -3.3447 -24.9980 -0.0573 -3.0376 0.2124 2.0196 -1.8976 14.6281 -3.2987 1.3968 -1.1032 1.3317 2.5748 13.1695 1.1609 1.4346 4.4858 0.0000 0.0000 0.0000 -83.4134 -0.4605 19.0542 14.4276 -23.3427 -2.9954 -0.0000 0.0000 -6.1780 18.9928 -17.9779 -6.0640 -7.1250 0.0000 -0.0000 -5.9272 11.1173 4.6990 0.0000 0.0000 0.0000 91.6804 -9.7318 12.1404 -21.1783 32.0359 -6.1442 0.0000 -0.0000 -6.7578 -8.8022 -52.5218 7.0056 7.1250 -0.0000 -0.0000 66.5873 -74.3713 -51.0081
-0.9529 18.0079 21.0115 177.3210 -1.4998 -153.7920 0.0000 0.0000 0.0000 -20.4379 -19.8746 -23.4222 0.5581 4.7852 13.2970 0.1866 -3.5874 -7.7090 3.6916 -11.7383 -34.8123 0.0000 0.0000 0.0000 17.7962 15.2424 -23.0027 -0.2819 -3.4148 9.4357 -1.0135 1.9517 -18.4729 -1.0965 6.6542 -18.6948 -5.5398 -3.3175 -25.2818 -0.0957 -3.0109 0.2458 1.9107 -1.8791 14.8175 -3.1444 1.4609 -1.0645 1.2309 2.6565 13.0788 1.1000 1.4758 4.4450 -0.0000 0.0000 0.0000 -83.2639 -0.5708 19.7063 14.2656 -23.1132 -2.9316 -0.0000 0.0000 -5.2539 19.8938 -17.8697 -6.3363 -7.1250 0.0000 -0.0000 -5.3291 11.1181 4.2202 -0.0000 0.0000 0.0000 91.7293 -9.6317 12.2563 -21.1051 31.9508 -6.1055 0.0000 -0.0000 -6.6220 -14.5113 -51.9981 11.5276 7.1250 -0.0000 -0.0000 61.7545 -76.3741 -48.8190
-0.9588 18.0023 21.0095 177.3730 -1.4007 -153.7420 0.0000 0.0000 0.0000 -20.4308 -19.7553 -23.4720 0.5558 4.7754 13.2691 0.1907 -3.6170 -7.7924 3.6265 -11.6461 -34.4913 0.0000 0.0000 0.0000 17.8518 15.0915 -23.0623 -0.2760 -3.3791 9.3360 -1.0012 2.1879 -18.3036 -1.0842 6.6180 -18.5884 -5.4682 -3.2797 -25.4453 -0.1367 -2.9666 0.2692 1.8319 -1.8539 14.9276 -2.9873 1.5226 -1.0177 1.2197 2.7369 13.1002 1.0712 1.5241 4.4429 0.0000 -0.0000 0.0000 -83.0930 -0.5663 20.1783 14.2556 -23.0989 -2.9276 -0.0000 0.0000 -4.6972 20.1315 -17.8162 -6.3994 -7.1250 0.0000 -0.0000 -5.1696 11.1439 4.0901 0.0000 -0.0000 0.0000 91.8156 -9.5821 12.4437 -21.0243 31.8568 -6.0628 0.0000 -0.0000 -6.3825 -14.8406 -51.3572 11.6926 7.1250 -0.0000 -0.0000 59.0902 -76.2595 -46.3376
-0.9651 17.9998 21.0137 177.3990 -1.2803 -153.7200 0.0000 0.0000 0.0000 -20.4017 -19.7719 -23.4987 0.5540 4.7679 13.2477 0.1974 -3.5435 -7.9165 3.4208 -11.3470 -33.4592 0.0000 0.0000 0.0000 17.7938 15.2678 -23.0490 -0.2733 -3.3630 9.2910 -0.9967 2.1087 -18.2783 -1.0428 6.4943 -18.2257 -5.4429 -3.2573 -25.4893 -0.1554 -2.9377 0.2913 1.8045 -1.8387 14.9741 -2.9386 1.5917 -0.9873 1.2216 2.8286 13.0977 1.0662 1.5724 4.4341 -0.0000 -0.0000 0.0000 -83.0152 -0.6298 20.2501 14.2748 -23.1262 -2.9352 -0.0000 0.0000 -4.5747 20.2712 -17.7831 -6.4358 -7.1250 0.0000 -0.0000 -5.0757 11.1608 4.0134 -0.0000 -0.0000 0.0000 91.8906 -9.5169 12.6225 -21.0157 31.8467 -6.0582 0.0000 -0.0000 -6.3837 -15.2802 -50.7838 11.9511 7.1250 -0.0000 -0.0000 56.6510 -76.1917 -44.1358
-0.9712 17.9944 21.0160 177.4350 -1.1346 -153.5450 0.0000 0.0000 0.0000 -20.3157 -19.8585 -23.7006 0.5510 4.7550 13.2112 0.2052 -3.4367 -8.0606 3.3074 -11.1768 -32.8785 0.0000 0.0000 0.0000 17.7102 15.4545 -23.2988 -0.2785 -3.3942 9.3782 -0.9971 2.0874 -18.2869 -1.0690 6.5730 -18.4563 -5.4288 -3.2548 -25.8132 -0.1260 -2.9182 0.3581 1.8235 -1.8335 15.2374 -3.0162 1.6272 -1.0654 1.1997 2.8701 13.0020 1.0735 1.5832 4.4131 0.0000 0.0000 0.0000 -83.0821 -0.9700 20.1038 14.1822 -22.9946 -2.8989 -0.0000 0.0000 -4.2286 20.4416 -17.8355 -6.5127 -7.1250 0.0000 -0.0000 -4.9668 11.0842 3.9345 0.0000 0.0000 0.0000 91.8560 -9.3031 12.9297 -21.0054 31.8347 -6.0528 0.0000 -0.0000 -6.2166 -14.3332 -56.5317 12.0324 7.1250 -0.0000 -0.0000 81.1174 -77.1835 -67.9131
-0.9772 17.9960 21.0116 177.4750 -1.0292 -153.6300 0.0000 0.0000 0.0000 -20.3670 -19.7849 -23.5864 0.5463 4.7351 13.1545 0.2131 -3.3739 -8.2096 3.3619 -11.2591 -33.1588 0.0000 0.0000 0.0000 17.7383 15.4367 -23.1779 -0.2756 -3.3768 9.3297 -0.9961 2.1393 -18.2658 -1.1273 6.7439 -18.9587 -5.4059 -3.2265 -25.8894 -0.1202 -2.8708 0.4627 1.8304 -1.8106 15.4029 -2.9941 1.6183 -1.0989 1.1583 2.8520 12.9263 1.0539 1.5701 4.3932 -0.0000 -0.0000 0.0000 -83.0676 -1.1864 20.1973 14.1437 -22.9398 -2.8839 -0.0000 0.0000 -3.9617 20.5755 -17.7603 -6.5323 -7.1250 0.0000 -0.0000 -4.8741 11.1458 3.8543 -0.0000 -0.0000 0.0000 91.8504 -9.1424 13.2295 -20.9639 31.7862 -6.0309 0.0000 -0.0000 -5.8195 -16.5775 -52.2880 13.2516 7.1250 -0.0000 -0.0000 61.9418 -77.2919 -49.9341
-0.9810 17.9945 21.0138 177.4970 -0.8770 -153.5920 0.0000 0.0000 0.0000 -20.4386 -19.5802 -23.7106 0.5514 4.7570 13.2167 0.2175 -3.4232 -8.2935 3.5175 -11.4890 -33.9474 0.0000 0.0000 0.0000 17.7255 15.5850 -23.1505 -0.2724 -3.3571 9.2745 -0.9929 2.1499 -18.2329 -1.1108 6.6960 -18.8177 -5.4965 -3.1984 -25.7953 -0.0802 -2.8262 0.3836 1.9520 -1.7997 15.2569 -2.9964 1.5952 -1.0696 1.1068 2.8328 12.9732 1.0367 1.5603 4.4058 -0.0000 -0.0000 0.0000 -83.0722 -1.0086 20.6353 14.2690 -23.1179 -2.9329 -0.0000 0.0000 -3.7134 20.7535 -17.6993 -6.5718 -7.1250 0.0000 -0.0000 -4.7532 11.1867 3.7540 -0.0000 -0.0000 0.0000 91.7645 -9.1840 13.5017 -20.8883 31.6978 -5.9912 0.0000 -0.0000 -5.8973 -15.4390 -55.4594 12.8164 7.1250 -0.0000 -0.0000 76.3251 -77.5351 -63.6220
